PathFileType	4	(X/Y/Z)	/Users/niels/Desktop/University/Third Semester/Perception and Action/Exam/Gymnastics Motion Tracking/Code for Gym Tracking/Analyzed Data/Webcam_Backflip/id3_1_trajectory_Sports2D/id3_1_trajectory_Sports2D_px_person00.trc
DataRate	CameraRate	NumFrames	NumMarkers	Units	OrigDataRate	OrigDataStartFrame	OrigNumFrames
29.8125	29.8125	8	22	m	29.8125	40	160
Frame#	Time	Hip			RHip			RKnee			RAnkle			RBigToe			RSmallToe			RHeel			LHip			LKnee			LAnkle			LBigToe			LSmallToe			LHeel			Neck			Head			Nose			RShoulder			RElbow			RWrist			LShoulder			LElbow			LWrist		
		X1	Y1	Z1	X2	Y2	Z2	X3	Y3	Z3	X4	Y4	Z4	X5	Y5	Z5	X6	Y6	Z6	X7	Y7	Z7	X8	Y8	Z8	X9	Y9	Z9	X10	Y10	Z10	X11	Y11	Z11	X12	Y12	Z12	X13	Y13	Z13	X14	Y14	Z14	X15	Y15	Z15	X16	Y16	Z16	X17	Y17	Z17	X18	Y18	Z18	X19	Y19	Z19	X20	Y20	Z20	X21	Y21	Z21	X22	Y22	Z22
40	1.341719077568134	0.951704733184541	-0.5416817248771884	0.0	0.9481046096287319	-0.5399180192058739	0.0	1.0083594479780122	-0.6389651785585415	0.0	0.9785208015947149	-0.7537200665800533	0.0	1.0225815094513353	-0.7721810680160929	0.0	1.010800377968918	-0.7767843161995077	0.0	0.9668521180057656	-0.7669329050435226	0.0	0.953529368500156	-0.539588182601112	0.0	1.0098976742144885	-0.6368885210716365	0.0	0.9835785524127969	-0.7446394707010116	0.0	1.0245129176175716	-0.7647988426797281	0.0	1.022356149666228	-0.7616020195487387	0.0	0.9676256733214708	-0.7593471402303483	0.0	1.0426410144529596	-0.43080105677195424	0.0	1.1071904515922113	-0.3793547148349505	0.0	1.1007946589309183	-0.40726361870036437	0.0	1.032872652302581	-0.4373005466583825	0.0	0.9540219470520772	-0.42692015672837286	0.0	0.8797900143912157	-0.42685676886271157	0.0	1.0355559748061973	-0.43624391339346735	0.0	0.9530510161157499	-0.4290759048823403	0.0	0.887783120281855	-0.4325676064809506	0.0
41	1.3752620545073373	0.950621152768042	-0.5497607139781822	0.0	0.9479803661789025	-0.5483935157498547	0.0	1.016006821095452	-0.6419178366297552	0.0	0.9790403179240187	-0.7545422579508139	0.0	1.0230085611470028	-0.7724951444940106	0.0	1.0111016677982458	-0.7771276957054029	0.0	0.9670574812248998	-0.7670859995022988	0.0	0.952122296420811	-0.5473682481932001	0.0	1.0172933407129259	-0.6392324550689922	0.0	0.984658856262013	-0.7449191632420905	0.0	1.02540771696113	-0.7654695922600762	0.0	1.0231403425799368	-0.7619096171097774	0.0	0.9687370895568315	-0.7591184494022915	0.0	1.0435639279503248	-0.44073975816389455	0.0	1.1057031479935935	-0.3881913874755512	0.0	1.100203497279142	-0.41595753587483364	0.0	1.0336651700115174	-0.4489386745081692	0.0	0.9543340726766602	-0.4437373950325394	0.0	0.881554926767271	-0.448983920134356	0.0	1.0346446950918986	-0.4458849574763012	0.0	0.9523018188799115	-0.4441155348330638	0.0	0.8878258443596946	-0.4535674018280893	0.0
42	1.4088050314465406	0.9503682244276764	-0.5615900467043751	0.0	0.948948789684065	-0.5605111012194764	0.0	1.0232015980457634	-0.6491848235948218	0.0	0.9795472400534248	-0.7587857297578476	0.0	1.0232317231155443	-0.7758098599503679	0.0	1.011231269203933	-0.7804677683798179	0.0	0.9674245499508133	-0.7706804734441002	0.0	0.9521025681772209	-0.5588178909740509	0.0	1.0236810918661914	-0.6457047492426002	0.0	0.9851818866054659	-0.7488028285028969	0.0	1.0260727969798904	-0.7701129785683355	0.0	1.0236614058746893	-0.766171649901752	0.0	0.969623082420532	-0.7623948504904208	0.0	1.0437852949595852	-0.4520538885586012	0.0	1.1020201753399255	-0.39798822057555955	0.0	1.0979814639509977	-0.426039191764719	0.0	1.0336094046402753	-0.46264206236468636	0.0	0.9557794883669419	-0.46732446860040183	0.0	0.8872893347168329	-0.4823105947248383	0.0	1.033007031702133	-0.45757729268466146	0.0	0.9536624147831663	-0.46575855295679086	0.0	0.8932625772347262	-0.4841615447856205	0.0
43	1.442348008385744	0.9508306948618047	-0.5769144025514524	0.0	0.9509087110446278	-0.5760692102539724	0.0	1.0291641339584972	-0.661225370368887	0.0	0.9800855965334286	-0.7672851593719925	0.0	1.0231919496773614	-0.783275423262136	0.0	1.0112152394354796	-0.787849948166888	0.0	0.9679568110790242	-0.7786288696684002	0.0	0.9533379685884708	-0.5738022437932814	0.0	1.0283975605746	-0.6569898181611529	0.0	0.9850125026084707	-0.7573310770198353	0.0	1.0265114010623417	-0.7799355033924259	0.0	1.0236581127591482	-0.7757195562717792	0.0	0.9701036181932831	-0.7700882685074838	0.0	1.0426671362368418	-0.4641073329152825	0.0	1.0956995961220004	-0.4081445413674961	0.0	1.0937641825081892	-0.43683764093720745	0.0	1.0322432098849286	-0.47745546285431717	0.0	0.9599086969320403	-0.49635148177557964	0.0	0.9000254633098577	-0.5238045295429566	0.0	1.0304757552952413	-0.4707890311888667	0.0	0.9587361613650794	-0.49264423398540635	0.0	0.9072630074742002	-0.5214788366446955	0.0
44	1.4758909853249473	0.9519625720032635	-0.5948996590973815	0.0	0.9535825195043994	-0.5943655461545259	0.0	1.0332098321322567	-0.6780078474956488	0.0	0.9806574704416361	-0.7803913695335084	0.0	1.0227995580392513	-0.7955837732625953	0.0	1.010963896961557	-0.7999069764428582	0.0	0.968505590879692	-0.7913705458395652	0.0	0.9555657889136013	-0.5917265690109618	0.0	1.0311550728009609	-0.6732603469338548	0.0	0.984309503085774	-0.770900056073579	0.0	1.0266997386815313	-0.7951044013130988	0.0	1.0228310919663373	-0.7909282996383535	0.0	0.9701384766139037	-0.7824585733109074	0.0	1.0396623860785146	-0.47631381145742774	0.0	1.0864211305996623	-0.4179858595155421	0.0	1.0872948219643386	-0.44758249330944383	0.0	1.0291487934327508	-0.4923956475977695	0.0	0.9681255741538511	-0.5279837627780631	0.0	0.9225425301732403	-0.567690347965542	0.0	1.0270155560192737	-0.48482255281038816	0.0	0.9688648844759353	-0.5218981776125808	0.0	0.9322190737052612	-0.5602218239095912	0.0
45	1.5094339622641506	0.9538888429847546	-0.6140502994299106	0.0	0.9566438268621983	-0.61398142959029	0.0	1.0350218709175398	-0.6986551466790043	0.0	0.9812405097553193	-0.7975071307088304	0.0	1.0221843047100132	-0.8123683700578933	0.0	1.0104968911867265	-0.8163104582997522	0.0	0.9688900748117736	-0.8084050889242346	0.0	0.958503241477862	-0.6112496655063556	0.0	1.0319655795015705	-0.6937363448587129	0.0	0.9834970408671058	-0.7888446958882186	0.0	1.0265458087054495	-0.814265641951946	0.0	1.0209816735629689	-0.8106340032497699	0.0	0.9697818366002776	-0.7988046603363498	0.0	1.0346052729492279	-0.4880723273140915	0.0	1.0739451602689936	-0.42677915409373407	0.0	1.078518800357095	-0.45738148844389553	0.0	1.02423116054909	-0.5065579572072808	0.0	0.9810315877128227	-0.558015169402446	0.0	0.9556850104024348	-0.6061209823214804	0.0	1.0228517785700608	-0.49878176403557895	0.0	0.9843653709821791	-0.549212669861285	0.0	0.9679868542034014	-0.5930884221035092	0.0
46	1.542976939203354	0.9568848232013044	-0.6324402169125971	0.0	0.9600012911662139	-0.6328685157009543	0.0	1.034855403315387	-0.7211207113077359	0.0	0.9818002784499981	-0.8168421567227626	0.0	1.0216851173696035	-0.8319326377377383	0.0	1.0099928394867423	-0.8354975578835113	0.0	0.9689951980445208	-0.8280322611372374	0.0	0.9620450121564448	-0.6302811066655097	0.0	1.0310916652634312	-0.7163803028298823	0.0	0.9829506951045957	-0.8092577803637269	0.0	1.0259333230573453	-0.8347573509397778	0.0	1.0181254727877846	-0.8321860695260197	0.0	0.9691165397978463	-0.8174306577270967	0.0	1.027815749279183	-0.4985794107085505	0.0	1.0581897932415514	-0.4337804428976045	0.0	1.067630892672104	-0.46522306675020014	0.0	1.0178939581248188	-0.5189585526149911	0.0	0.9980037926132855	-0.5814887415918476	0.0	0.9970077873960236	-0.6307395617090787	0.0	1.018313285996816	-0.5114153205306836	0.0	1.0037346662886921	-0.5694310058113259	0.0	1.0103895380157262	-0.6120973297362627	0.0
47	1.5765199161425574	0.9612634087894323	-0.6478842294700371	0.0	0.9640102115146422	-0.6485988155054389	0.0	1.0335070818987144	-0.7422532054846603	0.0	0.9823091879734412	-0.8356051078337894	0.0	1.0214392251913171	-0.8514493612346705	0.0	1.009511727724917	-0.8547952309777583	0.0	0.968843815906132	-0.8473703514583254	0.0	0.9663488974757579	-0.6462314059519327	0.0	1.0291672874118976	-0.7380112473046999	0.0	0.982763520260194	-0.8291927789370223	0.0	1.024767884670182	-0.8533494036626248	0.0	1.0144793625627166	-0.8521251343858403	0.0	0.9683115334213483	-0.8358623352929171	0.0	1.019898103399517	-0.5066258295953702	0.0	1.039398671742389	-0.4383003968249575	0.0	1.0550103670669395	-0.469944864297309	0.0	1.0109604686691236	-0.5282024043156871	0.0	1.0169606631621515	-0.5936614068373532	0.0	1.0405961818939788	-0.6349364400646096	0.0	1.013507347774669	-0.5209167653892871	0.0	1.0234679684864874	-0.5777871812763304	0.0	1.0515760279836144	-0.6109996583280762	0.0
